<svg xmlns="http://www.w3.org/2000/svg" viewBox="0 0 1200 420" role="img" aria-labelledby="title desc">
  <title id="title">ChromaLab repository hero</title>
  <desc id="desc">A public repository hero showing the ChromaLab brand, an auditable chromatogram pipeline, and local AI assistance.</desc>
  <defs>
    <linearGradient id="heroBg" x1="0" y1="0" x2="1200" y2="420" gradientUnits="userSpaceOnUse">
      <stop stop-color="#07111F"/>
      <stop offset="0.62" stop-color="#10233D"/>
      <stop offset="1" stop-color="#123A4D"/>
    </linearGradient>
    <linearGradient id="line" x1="478" y1="278" x2="1008" y2="112" gradientUnits="userSpaceOnUse">
      <stop stop-color="#62E0FF"/>
      <stop offset="0.48" stop-color="#23D3A6"/>
      <stop offset="1" stop-color="#F7C948"/>
    </linearGradient>
  </defs>
  <rect width="1200" height="420" rx="34" fill="url(#heroBg)"/>
  <g opacity="0.14">
    <path d="M430 70H1080M430 130H1080M430 190H1080M430 250H1080M430 310H1080" stroke="#D7E7F7" stroke-width="2"/>
    <path d="M500 50V334M590 50V334M680 50V334M770 50V334M860 50V334M950 50V334M1040 50V334" stroke="#D7E7F7" stroke-width="2"/>
  </g>
  <g transform="translate(72 76)">
    <rect width="126" height="126" rx="31" fill="#0D1B2A" stroke="#D7E7F7" stroke-opacity="0.16"/>
    <path d="M30 98H104M30 98V30" stroke="#D7E7F7" stroke-width="5" stroke-linecap="round"/>
    <path d="M34 88C44 87 50 80 56 73C65 62 68 45 76 42C84 39 88 78 96 78C106 78 108 38 116 32" fill="none" stroke="#23D3A6" stroke-width="8" stroke-linecap="round" stroke-linejoin="round"/>
    <circle cx="76" cy="42" r="7" fill="#07111F" stroke="#23D3A6" stroke-width="3"/>
    <circle cx="116" cy="32" r="7" fill="#07111F" stroke="#F7C948" stroke-width="3"/>
  </g>
  <text x="72" y="256" font-family="Inter, Segoe UI, Arial, sans-serif" font-size="60" font-weight="780" fill="#FFFFFF">ChromaLab</text>
  <text x="76" y="300" font-family="Inter, Segoe UI, Arial, sans-serif" font-size="25" font-weight="520" fill="#D7E7F7">Offline chromatogram analysis with local AI assistance</text>
  <text x="76" y="344" font-family="Inter, Segoe UI, Arial, sans-serif" font-size="18" font-weight="520" fill="#9FB6CB">Photo or screenshot -> graph evidence -> calibrated trace -> peak report</text>
  <g transform="translate(420 80)">
    <path d="M32 278H620M32 278V18" stroke="#D7E7F7" stroke-width="8" stroke-linecap="round" opacity="0.9"/>
    <path d="M48 260C80 256 100 242 118 222C145 190 158 110 184 104C208 98 220 238 244 238C278 238 286 42 322 30C350 20 372 162 398 192C422 220 454 210 482 142C506 82 530 54 560 52" fill="none" stroke="url(#line)" stroke-width="18" stroke-linecap="round" stroke-linejoin="round"/>
    <g font-family="Inter, Segoe UI, Arial, sans-serif" font-size="15" font-weight="700">
      <g transform="translate(150 75)">
        <rect width="124" height="34" rx="17" fill="#07111F" stroke="#23D3A6" stroke-opacity="0.7"/>
        <text x="18" y="23" fill="#D7E7F7">axis evidence</text>
      </g>
      <g transform="translate(314 0)">
        <rect width="126" height="34" rx="17" fill="#07111F" stroke="#F7C948" stroke-opacity="0.7"/>
        <text x="18" y="23" fill="#D7E7F7">peak review</text>
      </g>
      <g transform="translate(476 118)">
        <rect width="116" height="34" rx="17" fill="#07111F" stroke="#62E0FF" stroke-opacity="0.7"/>
        <text x="18" y="23" fill="#D7E7F7">local AI</text>
      </g>
    </g>
  </g>
</svg>
