<svg xmlns="http://www.w3.org/2000/svg" viewBox="0 0 512 512" role="img" aria-labelledby="title desc">
  <title id="title">ChromaLab icon</title>
  <desc id="desc">A rounded scientific app icon with a chromatogram trace, axis grid, evidence nodes, and a local AI chip mark.</desc>
  <defs>
    <linearGradient id="bg" x1="76" y1="52" x2="456" y2="468" gradientUnits="userSpaceOnUse">
      <stop stop-color="#07111F"/>
      <stop offset="0.58" stop-color="#10233D"/>
      <stop offset="1" stop-color="#123A4D"/>
    </linearGradient>
    <linearGradient id="trace" x1="102" y1="322" x2="426" y2="128" gradientUnits="userSpaceOnUse">
      <stop stop-color="#62E0FF"/>
      <stop offset="0.44" stop-color="#23D3A6"/>
      <stop offset="1" stop-color="#F7C948"/>
    </linearGradient>
    <filter id="soft" x="-20%" y="-20%" width="140%" height="140%">
      <feDropShadow dx="0" dy="14" stdDeviation="18" flood-color="#000000" flood-opacity="0.28"/>
    </filter>
  </defs>
  <rect x="32" y="32" width="448" height="448" rx="96" fill="url(#bg)"/>
  <g opacity="0.22">
    <path d="M108 120H420M108 184H420M108 248H420M108 312H420M108 376H420" stroke="#D7E7F7" stroke-width="2"/>
    <path d="M132 96V392M196 96V392M260 96V392M324 96V392M388 96V392" stroke="#D7E7F7" stroke-width="2"/>
  </g>
  <g filter="url(#soft)">
    <path d="M102 372H420" stroke="#D7E7F7" stroke-width="10" stroke-linecap="round" opacity="0.82"/>
    <path d="M102 372V110" stroke="#D7E7F7" stroke-width="10" stroke-linecap="round" opacity="0.82"/>
    <path d="M112 352C136 348 151 340 164 329C184 312 192 264 210 255C226 247 235 312 252 312C273 312 281 174 304 150C318 135 331 210 346 238C361 267 377 267 392 230C402 206 410 176 420 164" fill="none" stroke="url(#trace)" stroke-width="18" stroke-linecap="round" stroke-linejoin="round"/>
  </g>
  <g fill="#07111F" stroke="#23D3A6" stroke-width="8">
    <circle cx="210" cy="255" r="18"/>
    <circle cx="304" cy="150" r="18"/>
    <circle cx="392" cy="230" r="18"/>
  </g>
  <g transform="translate(314 316)">
    <rect x="0" y="0" width="86" height="86" rx="22" fill="#D7E7F7" opacity="0.95"/>
    <rect x="20" y="20" width="46" height="46" rx="10" fill="#0D1B2A"/>
    <path d="M30 44C36 35 50 35 56 44C50 53 36 53 30 44Z" fill="#23D3A6"/>
    <path d="M-10 22H0M-10 44H0M-10 66H0M86 22H96M86 44H96M86 66H96M22 -10V0M44 -10V0M66 -10V0M22 86V96M44 86V96M66 86V96" stroke="#D7E7F7" stroke-width="6" stroke-linecap="round"/>
  </g>
</svg>
